<svg xmlns="http://www.w3.org/2000/svg" xmlns:xlink="http://www.w3.org/1999/xlink" id="logo" width="166" height="166" version="1.1" viewBox="0 0 166 166"><g fill="none" fill-rule="evenodd" stroke="none" stroke-width="1"><rect id="bg" width="166" height="166" x="0" y="0" fill="#FD1015" fill-rule="nonzero"/><path id="Fill-1" fill="#FFF" d="M99.02963,107.150043 C98.95724,107.631149 98.54211,108 98.04082,108 C98.02715,108 98.01353,107.999725 98,107.999184 L98,108 L62,108 C61.44772,108 61,107.552284 61,107 L60.95893,107 C60.45078,100.84047 55.29066,96 49,96 C42.70934,96 37.549225,100.84047 37.041074,107 L37.040588,107 C37.040588,107.002045 37.040582,107.004086 37.04057,107.006126 C37.036722,107.053055 37.033145,107.10006 37.029839,107.147144 C36.958683,107.629665 36.542884,108 36.040588,108 C36.026994,108 36.013463,107.999729 36,107.999191 L36,108 L33,108 C32.4477153,108 32,107.552284 32,107 L32,105 C32,104.44772 32.4477153,104 33,104 L32.9999976,91 C33,90.44772 33.447715,90 34,90 L111.0107,90 C116.35553,90 121.15595,92.33094 124.45086,96.03172 C124.6991,96.31054 125.01125,96.70032 125.38732,97.20106 C125.76508,97.70406 126.35749,98.00002 126.98656,98.00002 L126.98656,98 L128.03845,98 C128.77907,98 129.76843,98 131.00655,98.00001 C132.1081,98.00354 133,98.89761 133,100 L133,106 C133,107.104568 132.1046,108 131,108 L124,108 L124,107.99921 C123.98669,107.999737 123.97331,108 123.95987,108 C123.45542,108 123.03822,107.626488 122.96973,107.140938 C122.96669,107.098038 122.96343,107.055202 122.95995,107.012428 C122.95989,107.008289 122.95987,107.004147 122.95987,107 L122.95892,107 C122.45078,100.84047 117.29066,96 111,96 C104.70934,96 99.54922,100.84047 99.04108,107 L99.04082,107 C99.04082,107.001057 99.04082,107.002117 99.04081,107.003174 C99.0368,107.052048 99.03307,107.101006 99.02963,107.150043 Z M131,93 C131,93.55228 130.55228,94 130,94 L128.42769,94 C128.1422,94 127.87033,93.87799 127.68056,93.6647 L127.6806,93.66468 C127.02455,92.92733 126.50519,92.37758 126.12251,92.01542 C122.18243,88.28669 116.8636,86 111.0107,86 L34,86 C33.447715,86 33,85.55228 33,85 L32.9999921,61.73608 C32.9999959,57.24826 36.306202,53.44626 40.750557,52.82323 C54.17689,50.94108 66.81701,50 78.6709,50 C99.83545,50 108.06426,51.6846 116,56 C120.83235,58.6278 125.42235,64.97361 129.76999,75.03741 C130.58141,76.91568 131,78.9401 131,80.98615 L131,93 Z M32.9999968,87 L32.9999968,89 L32.9999968,87 Z M38.941176,62 C38.421379,62 38,62.42138 38,62.94118 L38,77.05882 C38,77.57862 38.421379,78 38.941176,78 L53.05882,78 C53.57862,78 54,77.57862 54,77.05882 L54,62.94118 C54,62.42138 53.57862,62 53.05882,62 L38.941176,62 Z M80.94118,62 C80.42138,62 80,62.42138 80,62.94118 L80,77.05882 C80,77.57862 80.42138,78 80.94118,78 L95.05882,78 C95.57862,78 96,77.57862 96,77.05882 L96,62.94118 C96,62.42138 95.57862,62 95.05882,62 L80.94118,62 Z M59.94118,62 C59.42138,62 59,62.42138 59,62.94118 L59,77.05882 C59,77.57862 59.42138,78 59.94118,78 L74.05882,78 C74.57862,78 75,77.57862 75,77.05882 L75,62.94118 C75,62.42138 74.57862,62 74.05882,62 L59.94118,62 Z M100.99998,62.94118 L100.99998,77.05882 C100.99998,77.57862 101.42136,78 101.94116,78 L124.64474,78 C124.76008,78 124.87443,77.9788 124.98209,77.93747 C125.46734,77.75116 125.70967,77.20675 125.52336,76.72151 C124.49187,74.0349 123.29964,71.56397 121.94669,69.30871 C121.74333,68.96973 121.55637,68.63367 121.38579,68.30051 C119.40546,64.433 115.42628,62.00001 111.08125,62 L101.94116,62 C101.42136,62 100.99998,62.42138 100.99998,62.94118 Z M49,116 C44.58172,116 41,112.418278 41,108 C41,103.58172 44.58172,100 49,100 C53.41828,100 57,103.58172 57,108 C57,112.418278 53.41828,116 49,116 Z M49,112 C51.20914,112 53,110.209141 53,108 C53,105.79086 51.20914,104 49,104 C46.79086,104 45,105.79086 45,108 C45,110.209141 46.79086,112 49,112 Z M111,116 C106.58172,116 103,112.418278 103,108 C103,103.58172 106.58172,100 111,100 C115.41828,100 119,103.58172 119,108 C119,112.418278 115.41828,116 111,116 Z M111,112 C113.20914,112 115,110.209141 115,108 C115,105.79086 113.20914,104 111,104 C108.79086,104 107,105.79086 107,108 C107,110.209141 108.79086,112 111,112 Z"/></g></svg>